<svg width="56" height="56" viewBox="0 0 56 56" fill="none" xmlns="http://www.w3.org/2000/svg">
<path d="M28 49C39.598 49 49 39.598 49 28C49 16.402 39.598 7 28 7C16.402 7 7 16.402 7 28C7 39.598 16.402 49 28 49Z" fill="#BA1A1A"/>
<path opacity="0.8" d="M28 49C39.598 49 49 39.598 49 28C49 16.402 39.598 7 28 7C16.402 7 7 16.402 7 28C7 39.598 16.402 49 28 49Z" fill="#FFFFFF"/>
<path d="M28 49C39.598 49 49 39.598 49 28C49 16.402 39.598 7 28 7C16.402 7 7 16.402 7 28C7 39.598 16.402 49 28 49Z" stroke="#BA1A1A" stroke-width="2" stroke-miterlimit="10"/>
<path d="M20.125 26.25C21.5747 26.25 22.75 25.0747 22.75 23.625C22.75 22.1753 21.5747 21 20.125 21C18.6753 21 17.5 22.1753 17.5 23.625C17.5 25.0747 18.6753 26.25 20.125 26.25Z" fill="black"/>
<path d="M35.875 26.25C37.3247 26.25 38.5 25.0747 38.5 23.625C38.5 22.1753 37.3247 21 35.875 21C34.4253 21 33.25 22.1753 33.25 23.625C33.25 25.0747 34.4253 26.25 35.875 26.25Z" fill="black"/>
<path d="M20.125 26.25C21.5747 26.25 22.75 25.0747 22.75 23.625C22.75 22.1753 21.5747 21 20.125 21C18.6753 21 17.5 22.1753 17.5 23.625C17.5 25.0747 18.6753 26.25 20.125 26.25Z" fill="#2B3038"/>
<path d="M35.875 26.25C37.3247 26.25 38.5 25.0747 38.5 23.625C38.5 22.1753 37.3247 21 35.875 21C34.4253 21 33.25 22.1753 33.25 23.625C33.25 25.0747 34.4253 26.25 35.875 26.25Z" fill="#2B3038"/>
<path d="M37.0999 38.5001C36.1748 36.9063 34.8473 35.5834 33.2503 34.6638C31.6533 33.7443 29.8427 33.2603 27.9999 33.2603C26.1571 33.2603 24.3465 33.7443 22.7495 34.6638C21.1525 35.5834 19.825 36.9063 18.8999 38.5001" stroke="#2B3038" stroke-width="2" stroke-linecap="round" stroke-linejoin="round"/>
</svg>
