<svg width="56" height="56" viewBox="0 0 56 56" fill="none" xmlns="http://www.w3.org/2000/svg">
<path d="M28 49C39.598 49 49 39.598 49 28C49 16.402 39.598 7 28 7C16.402 7 7 16.402 7 28C7 39.598 16.402 49 28 49Z" fill="#FABD00"/>
<path opacity="0.8" d="M28 49C39.598 49 49 39.598 49 28C49 16.402 39.598 7 28 7C16.402 7 7 16.402 7 28C7 39.598 16.402 49 28 49Z" fill="#FFFFFF"/>
<path d="M28 49C39.598 49 49 39.598 49 28C49 16.402 39.598 7 28 7C16.402 7 7 16.402 7 28C7 39.598 16.402 49 28 49Z" stroke="#FABD00" stroke-width="2" stroke-miterlimit="10"/>
<path d="M19.25 35H36.75" stroke="#2B3038" stroke-width="2" stroke-linecap="round" stroke-linejoin="round"/>
<path d="M22.6875 23.625C22.6875 25.0402 21.5402 26.1875 20.125 26.1875C18.7098 26.1875 17.5625 25.0402 17.5625 23.625C17.5625 22.2098 18.7098 21.0625 20.125 21.0625C21.5402 21.0625 22.6875 22.2098 22.6875 23.625Z" fill="#2B3038" stroke="#2B3038" stroke-width="0.125"/>
<path d="M38.4375 23.625C38.4375 25.0402 37.2902 26.1875 35.875 26.1875C34.4598 26.1875 33.3125 25.0402 33.3125 23.625C33.3125 22.2098 34.4598 21.0625 35.875 21.0625C37.2902 21.0625 38.4375 22.2098 38.4375 23.625Z" fill="#2B3038" stroke="#2B3038" stroke-width="0.125"/>
</svg>
