<svg width="32" height="32" viewBox="0 0 32 32" fill="none" xmlns="http://www.w3.org/2000/svg">
<g clip-path="url(#clip0_3334_11544)">
<circle cx="16" cy="16" r="15" fill="#BA1A1A" stroke="#2B3038" stroke-width="2"/>
<path d="M16 26C21.5228 26 26 21.5228 26 16C26 10.4772 21.5228 6 16 6C10.4772 6 6 10.4772 6 16C6 21.5228 10.4772 26 16 26Z" fill="white"/>
<path fill-rule="evenodd" clip-rule="evenodd" d="M16 10C16.5523 10 17 10.5495 17 11.2273V17.7727C17 18.4505 16.5523 19 16 19C15.4477 19 15 18.4505 15 17.7727V11.2273C15 10.5495 15.4477 10 16 10Z" fill="#2B3038"/>
<path fill-rule="evenodd" clip-rule="evenodd" d="M16 20C15.4477 20 15 20.4477 15 21C15 21.5523 15.4477 22 16 22C16.5523 22 17 21.5523 17 21C17 20.4477 16.5523 20 16 20Z" fill="#2B3038"/>
</g>
<defs>
<clipPath id="clip0_3334_11544">
<rect width="32" height="32" fill="white"/>
</clipPath>
</defs>
</svg>
