<svg width="32" height="32" viewBox="0 0 32 32" fill="none" xmlns="http://www.w3.org/2000/svg">
<g clip-path="url(#clip0_183_6537)">
<path d="M20.4571 19.2H5.59998V26.4H26.4V19.2H20.4571Z" fill="#58DBB9"/>
<path d="M9.33335 5.6C11.1049 5.6 12.8764 6.22766 14.37 7.39033C14.6955 7.64378 15.1634 7.63667 15.4551 7.34492C15.7561 7.04397 15.7579 6.55332 15.4346 6.27655C13.6615 4.75885 11.4974 4 9.33335 4C7.16929 4 5.00522 4.75885 3.23215 6.27655C2.90882 6.55332 2.91066 7.04397 3.21161 7.34492C3.50336 7.63667 3.97117 7.64378 4.29674 7.39033C5.79029 6.22766 7.56182 5.6 9.33335 5.6ZM5.49631 8.43191C5.16974 8.69051 5.17214 9.17211 5.46669 9.46667C5.76124 9.76122 6.23567 9.75465 6.5752 9.51332C7.40193 8.92572 8.36764 8.66667 9.33335 8.66667C10.2991 8.66667 11.2648 8.92572 12.0915 9.51332C12.431 9.75465 12.9055 9.76122 13.2 9.46667C13.4946 9.17211 13.497 8.69051 13.1704 8.43191C12.0555 7.54911 10.6944 7.06667 9.33335 7.06667C7.97226 7.06667 6.61116 7.54911 5.49631 8.43191ZM25.3334 17.3333H10.8667C10.3144 17.3333 9.86669 16.8856 9.86669 16.3333V12.9333C9.86669 12.4179 9.44882 12 8.93335 12C8.41789 12 8.00002 12.4179 8.00002 12.9333V16.3333C8.00002 16.8856 7.55231 17.3333 7.00002 17.3333H6.66669C5.20002 17.3333 4.00002 18.5333 4.00002 20V25.3333C4.00002 26.8 5.20002 28 6.66669 28H25.3334C26.8 28 28 26.8 28 25.3333V20C28 18.5333 26.8 17.3333 25.3334 17.3333ZM26.1334 25.1333C26.1334 25.6856 25.6856 26.1333 25.1334 26.1333H6.86669C6.3144 26.1333 5.86669 25.6856 5.86669 25.1333V20.2C5.86669 19.6477 6.3144 19.2 6.86669 19.2H25.1334C25.6856 19.2 26.1334 19.6477 26.1334 20.2V25.1333ZM8.00002 22.6667C8.00002 21.9303 8.59697 21.3333 9.33335 21.3333C10.0697 21.3333 10.6667 21.9303 10.6667 22.6667C10.6667 23.403 10.0697 24 9.33335 24C8.59697 24 8.00002 23.403 8.00002 22.6667ZM12.6667 22.6667C12.6667 21.9303 13.2636 21.3333 14 21.3333C14.7364 21.3333 15.3334 21.9303 15.3334 22.6667C15.3334 23.403 14.7364 24 14 24C13.2636 24 12.6667 23.403 12.6667 22.6667ZM17.3334 22.6667C17.3334 21.9303 17.9303 21.3333 18.6667 21.3333C19.4031 21.3333 20 21.9303 20 22.6667C20 23.403 19.4031 24 18.6667 24C17.9303 24 17.3334 23.403 17.3334 22.6667Z" fill="#2B3038"/>
</g>
<defs>
<clipPath id="clip0_183_6537">
<rect width="32" height="32" fill="white"/>
</clipPath>
</defs>
</svg>
