<svg width="40" height="40" viewBox="0 0 40 40" fill="none" xmlns="http://www.w3.org/2000/svg">
<rect x="0.5" y="0.5" width="39" height="39" rx="19.5" fill="#BA1A1A"/>
<path d="M20 32C26.6274 32 32 26.6274 32 20C32 13.3726 26.6274 8 20 8C13.3726 8 8 13.3726 8 20C8 26.6274 13.3726 32 20 32Z" fill="white"/>
<path d="M20 32C26.6274 32 32 26.6274 32 20C32 13.3726 26.6274 8 20 8C13.3726 8 8 13.3726 8 20C8 26.6274 13.3726 32 20 32Z" stroke="white" stroke-width="2" stroke-miterlimit="10"/>
<path d="M20 14V21" stroke="#BA1A1A" stroke-width="2" stroke-linecap="round" stroke-linejoin="round"/>
<path d="M21.4375 25.5C21.4375 26.2939 20.7939 26.9375 20 26.9375C19.2061 26.9375 18.5625 26.2939 18.5625 25.5C18.5625 24.7061 19.2061 24.0625 20 24.0625C20.7939 24.0625 21.4375 24.7061 21.4375 25.5Z" fill="#BA1A1A" stroke="#BA1A1A" stroke-width="0.125"/>
<rect x="0.5" y="0.5" width="39" height="39" rx="19.5" stroke="#BA1A1A"/>
</svg>
