<svg width="40" height="40" viewBox="0 0 40 40" fill="none" xmlns="http://www.w3.org/2000/svg">
<g clip-path="url(#clip0_272_6619)">
<path opacity="0.2" d="M25.5714 24H7V33H33V24H25.5714Z" fill="#2B3038"/>
<path d="M11.6666 7C13.881 7 16.0954 7.78458 17.9624 9.23792C18.3693 9.55472 18.9541 9.54584 19.3188 9.18115C19.695 8.80496 19.6973 8.19165 19.2931 7.84569C17.0768 5.94856 14.3717 5 11.6666 5C8.9615 5 6.25642 5.94856 4.04008 7.84569C3.63591 8.19165 3.63821 8.80496 4.0144 9.18115C4.37909 9.54584 4.96386 9.55472 5.37082 9.23792C7.23776 7.78458 9.45217 7 11.6666 7ZM6.87028 10.5399C6.46207 10.8631 6.46506 11.4651 6.83325 11.8333C7.20144 12.2015 7.79448 12.1933 8.2189 11.8917C9.25231 11.1572 10.4594 10.8333 11.6666 10.8333C12.8737 10.8333 14.0809 11.1572 15.1143 11.8917C15.5387 12.1933 16.1317 12.2015 16.4999 11.8333C16.8681 11.4651 16.8711 10.8631 16.4629 10.5399C15.0693 9.43639 13.368 8.83333 11.6666 8.83333C9.96522 8.83333 8.26385 9.43639 6.87028 10.5399ZM31.6666 21.6667H13.3333C12.781 21.6667 12.3333 21.219 12.3333 20.6667V16C12.3333 15.4477 11.8855 15 11.3333 15H10.9999C10.4476 15 9.99992 15.4477 9.99992 16V20.6667C9.99992 21.219 9.5522 21.6667 8.99992 21.6667H8.33325C6.49992 21.6667 4.99992 23.1667 4.99992 25V31.6667C4.99992 33.5 6.49992 35 8.33325 35H31.6666C33.4999 35 34.9999 33.5 34.9999 31.6667V25C34.9999 23.1667 33.4999 21.6667 31.6666 21.6667ZM32.6666 31.6667C32.6666 32.219 32.2189 32.6667 31.6666 32.6667H8.33325C7.78097 32.6667 7.33325 32.219 7.33325 31.6667V25C7.33325 24.4477 7.78097 24 8.33325 24H31.6666C32.2189 24 32.6666 24.4477 32.6666 25V31.6667ZM9.99992 28.3333C9.99992 27.4129 10.7461 26.6667 11.6666 26.6667C12.5871 26.6667 13.3333 27.4129 13.3333 28.3333C13.3333 29.2538 12.5871 30 11.6666 30C10.7461 30 9.99992 29.2538 9.99992 28.3333ZM15.8333 28.3333C15.8333 27.4129 16.5794 26.6667 17.4999 26.6667C18.4204 26.6667 19.1666 27.4129 19.1666 28.3333C19.1666 29.2538 18.4204 30 17.4999 30C16.5794 30 15.8333 29.2538 15.8333 28.3333ZM21.6666 28.3333C21.6666 27.4129 22.4128 26.6667 23.3333 26.6667C24.2537 26.6667 24.9999 27.4129 24.9999 28.3333C24.9999 29.2538 24.2537 30 23.3333 30C22.4128 30 21.6666 29.2538 21.6666 28.3333Z" fill="#2B3038"/>
</g>
<rect x="28" y="14" width="12" height="12" rx="6" fill="#58DBB9"/>
<path d="M30.5625 20H37.4375" stroke="black" stroke-linecap="round" stroke-linejoin="round"/>
<path d="M34 16.5625V23.4375" stroke="black" stroke-linecap="round" stroke-linejoin="round"/>
<defs>
<clipPath id="clip0_272_6619">
<rect width="40" height="40" fill="white"/>
</clipPath>
</defs>
</svg>
