<svg width="40" height="40" viewBox="0 0 40 40" fill="none" xmlns="http://www.w3.org/2000/svg">
<path opacity="0.2" d="M3.75 9.375H23.75C25.0761 9.375 26.3479 9.90178 27.2855 10.8395C28.2232 11.7771 28.75 13.0489 28.75 14.375V29.375C28.75 29.7065 28.6183 30.0245 28.3839 30.2589C28.1495 30.4933 27.8315 30.625 27.5 30.625H7.5C6.17392 30.625 4.90215 30.0982 3.96447 29.1605C3.02678 28.2229 2.5 26.9511 2.5 25.625V10.625C2.5 10.2935 2.6317 9.97554 2.86612 9.74112C3.10054 9.5067 3.41848 9.375 3.75 9.375Z" fill="#2B3038"/>
<path d="M3.75 9.375H23.75C25.0761 9.375 26.3479 9.90178 27.2855 10.8395C28.2232 11.7771 28.75 13.0489 28.75 14.375V29.375C28.75 29.7065 28.6183 30.0245 28.3839 30.2589C28.1495 30.4933 27.8315 30.625 27.5 30.625H7.5C6.17392 30.625 4.90215 30.0982 3.96447 29.1605C3.02678 28.2229 2.5 26.9511 2.5 25.625V10.625C2.5 10.2935 2.6317 9.97554 2.86612 9.74112C3.10054 9.5067 3.41848 9.375 3.75 9.375V9.375Z" stroke="#2B3038" stroke-width="2" stroke-linecap="round" stroke-linejoin="round"/>
<path d="M28.75 17.5L37.5 12.5V27.5L28.75 22.5" stroke="#2B3038" stroke-width="2" stroke-linecap="round" stroke-linejoin="round"/>
<rect x="28" width="12" height="12" rx="6" fill="#58DBB9"/>
<path d="M30.5625 6H37.4375" stroke="black" stroke-linecap="round" stroke-linejoin="round"/>
<path d="M34 2.5625V9.4375" stroke="black" stroke-linecap="round" stroke-linejoin="round"/>
</svg>
