<svg width="40" height="40" viewBox="0 0 40 40" fill="none" xmlns="http://www.w3.org/2000/svg">
<path opacity="0.2" d="M32.5 10H27.5L25 6.25H15L12.5 10H7.5C6.83696 10 6.20107 10.2634 5.73223 10.7322C5.26339 11.2011 5 11.837 5 12.5V30C5 30.663 5.26339 31.2989 5.73223 31.7678C6.20107 32.2366 6.83696 32.5 7.5 32.5H32.5C33.163 32.5 33.7989 32.2366 34.2678 31.7678C34.7366 31.2989 35 30.663 35 30V12.5C35 11.837 34.7366 11.2011 34.2678 10.7322C33.7989 10.2634 33.163 10 32.5 10V10ZM20 26.25C18.8875 26.25 17.7999 25.9201 16.8749 25.302C15.9499 24.6839 15.2289 23.8054 14.8032 22.7776C14.3774 21.7498 14.266 20.6188 14.4831 19.5276C14.7001 18.4365 15.2359 17.4342 16.0225 16.6475C16.8092 15.8609 17.8115 15.3251 18.9026 15.1081C19.9938 14.891 21.1248 15.0024 22.1526 15.4282C23.1804 15.8539 24.0589 16.5749 24.677 17.4999C25.2951 18.4249 25.625 19.5125 25.625 20.625C25.625 22.1168 25.0324 23.5476 23.9775 24.6025C22.9226 25.6574 21.4918 26.25 20 26.25V26.25Z" fill="black"/>
<path d="M32.5 32.5H7.5C6.83696 32.5 6.20107 32.2366 5.73223 31.7678C5.26339 31.2989 5 30.663 5 30V12.5C5 11.837 5.26339 11.2011 5.73223 10.7322C6.20107 10.2634 6.83696 10 7.5 10H12.5L15 6.25H25L27.5 10H32.5C33.163 10 33.7989 10.2634 34.2678 10.7322C34.7366 11.2011 35 11.837 35 12.5V30C35 30.663 34.7366 31.2989 34.2678 31.7678C33.7989 32.2366 33.163 32.5 32.5 32.5Z" stroke="black" stroke-width="2" stroke-linecap="round" stroke-linejoin="round"/>
<path d="M20 26.25C23.1066 26.25 25.625 23.7316 25.625 20.625C25.625 17.5184 23.1066 15 20 15C16.8934 15 14.375 17.5184 14.375 20.625C14.375 23.7316 16.8934 26.25 20 26.25Z" stroke="black" stroke-width="2" stroke-linecap="round" stroke-linejoin="round"/>
<rect x="28" width="12" height="12" rx="6" fill="#58DBB9"/>
<path d="M30.5625 6H37.4375" stroke="black" stroke-linecap="round" stroke-linejoin="round"/>
<path d="M34 2.5625V9.4375" stroke="black" stroke-linecap="round" stroke-linejoin="round"/>
</svg>
