<svg width="92" height="89" viewBox="0 0 92 89" fill="none" xmlns="http://www.w3.org/2000/svg">
<path d="M54.5 84H89.5" stroke="#2B3038" stroke-width="2" stroke-linecap="round" stroke-linejoin="round"/>
<path d="M75.75 84V74.1562C75.75 73.7833 75.6183 73.4256 75.3839 73.1619C75.1495 72.8982 74.8315 72.75 74.5 72.75H69.5C69.1685 72.75 68.8505 72.8982 68.6161 73.1619C68.3817 73.4256 68.25 73.7833 68.25 74.1562V84" stroke="#2B3038" stroke-width="2" stroke-linecap="round" stroke-linejoin="round"/>
<path fill-rule="evenodd" clip-rule="evenodd" d="M87 67.3598V84H75.75V74.1562C75.75 73.7833 75.6183 73.4256 75.3839 73.1619C75.1495 72.8982 74.8315 72.75 74.5 72.75H69.5C69.1685 72.75 68.8505 72.8982 68.6161 73.1619C68.3817 73.4256 68.25 73.7833 68.25 74.1562V84H57V67.3598C56.999 67.1758 57.038 66.9937 57.1143 66.8254C57.1907 66.6571 57.3028 66.5063 57.4432 66.3829L71.0796 54.3456C71.3281 54.1234 71.6536 54 71.9915 54C72.3293 54 72.6548 54.1234 72.9034 54.3456L86.5568 66.3829C86.694 66.5088 86.8039 66.66 86.8801 66.8278C86.9562 66.9956 86.9969 67.1764 87 67.3598Z" fill="white"/>
<path d="M87 84V85C87.5523 85 88 84.5523 88 84H87ZM87 67.3598H88C88 67.3542 88 67.3487 87.9999 67.3431L87 67.3598ZM75.75 84H74.75C74.75 84.5523 75.1977 85 75.75 85V84ZM68.6161 73.1619L67.8687 72.4975L67.8687 72.4975L68.6161 73.1619ZM68.25 84V85C68.8023 85 69.25 84.5523 69.25 84H68.25ZM57 84H56C56 84.5523 56.4477 85 57 85V84ZM57 67.3598H58L58 67.3543L57 67.3598ZM57.1143 66.8254L56.2037 66.4123L56.2037 66.4123L57.1143 66.8254ZM57.4432 66.3829L58.1033 67.134L58.105 67.1326L57.4432 66.3829ZM71.0796 54.3456L71.7414 55.0953L71.7461 55.0911L71.0796 54.3456ZM72.9034 54.3456L72.2369 55.0911L72.2421 55.0957L72.9034 54.3456ZM86.5568 66.3829L87.2328 65.646C87.228 65.6415 87.2231 65.6371 87.2181 65.6328L86.5568 66.3829ZM86.8801 66.8278L87.7907 66.4147L87.7907 66.4147L86.8801 66.8278ZM88 84V67.3598H86V84H88ZM75.75 85H87V83H75.75V85ZM76.75 84V74.1562H74.75V84H76.75ZM76.75 74.1562C76.75 73.5536 76.5383 72.9554 76.1313 72.4975L74.6365 73.8262C74.6983 73.8958 74.75 74.013 74.75 74.1562H76.75ZM76.1313 72.4975C75.7209 72.0358 75.1373 71.75 74.5 71.75V73.75C74.5257 73.75 74.578 73.7605 74.6365 73.8262L76.1313 72.4975ZM74.5 71.75H69.5V73.75H74.5V71.75ZM69.5 71.75C68.8627 71.75 68.2791 72.0358 67.8687 72.4975L69.3635 73.8262C69.422 73.7605 69.4743 73.75 69.5 73.75V71.75ZM67.8687 72.4975C67.4617 72.9554 67.25 73.5536 67.25 74.1562H69.25C69.25 74.013 69.3017 73.8958 69.3635 73.8262L67.8687 72.4975ZM67.25 74.1562V84H69.25V74.1562H67.25ZM57 85H68.25V83H57V85ZM56 67.3598V84H58V67.3598H56ZM56.2037 66.4123C56.068 66.7114 55.9983 67.0362 56 67.3652L58 67.3543C57.9998 67.3154 58.008 67.2761 58.025 67.2385L56.2037 66.4123ZM56.7831 65.6317C56.5374 65.8476 56.3393 66.1132 56.2037 66.4123L58.025 67.2385C58.0421 67.2009 58.0682 67.1649 58.1033 67.134L56.7831 65.6317ZM70.4178 53.5959L56.7814 65.6332L58.105 67.1326L71.7413 55.0953L70.4178 53.5959ZM71.9915 53C71.4113 53 70.8476 53.2116 70.413 53.6001L71.7461 55.0911C71.8087 55.0351 71.896 55 71.9915 55V53ZM73.5699 53.6001C73.1354 53.2116 72.5717 53 71.9915 53V55C72.087 55 72.1743 55.0351 72.2369 55.0911L73.5699 53.6001ZM87.2181 65.6328L73.5647 53.5955L72.2421 55.0957L85.8955 67.133L87.2181 65.6328ZM87.7907 66.4147C87.6584 66.1229 87.4682 65.8619 87.2328 65.646L85.8808 67.1198C85.9199 67.1556 85.9495 67.1971 85.9694 67.2409L87.7907 66.4147ZM87.9999 67.3431C87.9945 67.0222 87.9231 66.7065 87.7907 66.4147L85.9694 67.2409C85.9892 67.2847 85.9994 67.3307 86.0001 67.3764L87.9999 67.3431Z" fill="#2B3038"/>
<path d="M57.3125 68.75C58.6587 68.75 59.75 67.6587 59.75 66.3125C59.75 64.9663 58.6587 63.875 57.3125 63.875C55.9663 63.875 54.875 64.9663 54.875 66.3125C54.875 67.6587 55.9663 68.75 57.3125 68.75Z" fill="#58DBB9"/>
<path d="M57.3125 68.75C58.6587 68.75 59.75 67.6587 59.75 66.3125C59.75 64.9663 58.6587 63.875 57.3125 63.875C55.9663 63.875 54.875 64.9663 54.875 66.3125C54.875 67.6587 55.9663 68.75 57.3125 68.75Z" stroke="#2B3038" stroke-width="2" stroke-linecap="round" stroke-linejoin="round"/>
<path d="M44.3125 51.6875H54.0625C54.9245 51.6875 55.7511 52.0299 56.3606 52.6394C56.9701 53.2489 57.3125 54.0755 57.3125 54.9375C57.3125 55.7995 56.9701 56.6261 56.3606 57.2356C55.7511 57.8451 54.9245 58.1875 54.0625 58.1875H44.3125C43.2351 58.1875 42.2017 58.6155 41.4399 59.3774C40.678 60.1392 40.25 61.1726 40.25 62.25C40.25 63.3274 40.678 64.3608 41.4399 65.1226C42.2017 65.8845 43.2351 66.3125 44.3125 66.3125H54.875" stroke="#2B3038" stroke-width="2" stroke-linecap="round" stroke-linejoin="round"/>
<path d="M20 32C20 28.0444 21.173 24.1776 23.3706 20.8886C25.5682 17.5996 28.6918 15.0362 32.3463 13.5224C36.0009 12.0087 40.0222 11.6126 43.9018 12.3843C47.7814 13.156 51.3451 15.0608 54.1421 17.8579C56.9392 20.6549 58.844 24.2186 59.6157 28.0982C60.3874 31.9778 59.9913 35.9992 58.4776 39.6537C56.9638 43.3082 54.4004 46.4318 51.1114 48.6294C47.8224 50.827 43.9556 52 40 52H18C14.287 52 10.726 50.525 8.1005 47.8995C5.475 45.274 4 41.713 4 38C4 34.287 5.475 30.726 8.1005 28.1005C10.726 25.475 14.287 24 18 24C19.1713 23.9996 20.3383 24.1423 21.475 24.425" fill="white"/>
<path d="M20 32C20 28.0444 21.173 24.1776 23.3706 20.8886C25.5682 17.5996 28.6918 15.0362 32.3463 13.5224C36.0009 12.0087 40.0222 11.6126 43.9018 12.3843C47.7814 13.156 51.3451 15.0608 54.1421 17.8579C56.9392 20.6549 58.844 24.2186 59.6157 28.0982C60.3874 31.9778 59.9913 35.9992 58.4776 39.6537C56.9638 43.3082 54.4004 46.4318 51.1114 48.6294C47.8224 50.827 43.9556 52 40 52H18C14.287 52 10.726 50.525 8.1005 47.8995C5.475 45.274 4 41.713 4 38C4 34.287 5.475 30.726 8.1005 28.1005C10.726 25.475 14.287 24 18 24C19.1713 23.9996 20.3383 24.1423 21.475 24.425" stroke="#2B3038" stroke-width="2" stroke-linecap="round" stroke-linejoin="round"/>
</svg>
