<svg width="56" height="56" viewBox="0 0 56 56" fill="none" xmlns="http://www.w3.org/2000/svg">
<path d="M28 49C39.598 49 49 39.598 49 28C49 16.402 39.598 7 28 7C16.402 7 7 16.402 7 28C7 39.598 16.402 49 28 49Z" fill="#00B451"/>
<path opacity="0.8" d="M28 49C39.598 49 49 39.598 49 28C49 16.402 39.598 7 28 7C16.402 7 7 16.402 7 28C7 39.598 16.402 49 28 49Z" fill="#FFFFFF"/>
<path d="M28 49C39.598 49 49 39.598 49 28C49 16.402 39.598 7 28 7C16.402 7 7 16.402 7 28C7 39.598 16.402 49 28 49Z" stroke="#00B451" stroke-width="2" stroke-linecap="round" stroke-linejoin="round"/>
<path d="M20.125 26.25C21.5747 26.25 22.75 25.0747 22.75 23.625C22.75 22.1753 21.5747 21 20.125 21C18.6753 21 17.5 22.1753 17.5 23.625C17.5 25.0747 18.6753 26.25 20.125 26.25Z" fill="#2B3038"/>
<path d="M33.25 23.625H38.5" stroke="#2B3038" stroke-width="2" stroke-linecap="round" stroke-linejoin="round"/>
<path d="M37.0999 33.25C36.1748 34.8438 34.8473 36.1667 33.2503 37.0863C31.6533 38.0058 29.8427 38.4898 27.9999 38.4898C26.1571 38.4898 24.3465 38.0058 22.7495 37.0863C21.1525 36.1667 19.825 34.8438 18.8999 33.25" stroke="#2B3038" stroke-width="2" stroke-linecap="round" stroke-linejoin="round"/>
</svg>
